<svg id="Capa_1" enable-background="new 0 0 511.109 511.109" height="512" viewBox="0 0 511.109 511.109" width="512" xmlns="http://www.w3.org/2000/svg"><g><g><g><path d="m255.441 0s-258.031 208.458 0 433.865l10-205.865z" fill="#a0be28"/><path d="m255.441 0v433.865c258.028-225.404.005-433.861 0-433.865z" fill="#4aa046"/></g><path d="m156.577 464.949c-222.442-194.317 0-374.025 0-374.025s96.68 78.106 98.827 187.012l10 80.396-10 124.667z" fill="#4aa046"/><path d="m354.231 464.949c222.442-194.317 0-374.025 0-374.025s-96.68 78.106-98.827 187.012v205.064z" fill="#347131"/></g><g><path d="m255.441 461.175c-15.724-209.874-236.37-186.435-236.37-186.435s-26.63 236.37 236.37 236.37l10-26.609-10-23.326c0-.001 0 0 0 0z" fill="#a0be28"/><path d="m491.81 274.74s-220.645-23.439-236.37 186.434v49.935c266.001 0 236.37-236.369 236.37-236.369z" fill="#4aa046"/></g></g></svg>